# xmcd
#
# Track frame offsets: 
#        150
#        9028
#        19909
#        31533
#        41360
#        60399
#        76502
#        87957
#        99542
#        111172
#        121342
#        129861
#        138343
#        147836
#        150674
#        153273
#        161847
#        170603
#        179044
#        189514
#        198073
#        205329
#        211089
#        225584
#        241906
#        248600
#        264364
#        270056
#        278695
#        284856
#        292769
#
# Disc length: 4038 seconds
#
# Revision: 0
# Processed by: cddbd v1.5.2PL0 Copyright (c) Steve Scherf et al.
# Submitted via: ExactAudioCopy v0.95b3
#
DISCID=8d0fc41f
DTITLE=Buddy Holly  - Down the Line   The Rarities CD 2
DYEAR=1900
DGENRE=
TTITLE0=Last Night
TTITLE1=Not Fade Away (Partial Alternate Overdub)
TTITLE2=Peggy Sue [Alternate Take]
TTITLE3=Oh Boy
TTITLE4=That's My Desire [Two False Starts Plus Undubbed Master]
TTITLE5=Take Your Time [False Start and Partially Undubbed Take]
TTITLE6=Fool's Paradise [Alternate Take Undubbed]
TTITLE7=Fool's Paradise [Undubbed Master]
TTITLE8=Fool's Paradise [Alternate #2 Undubbed]
TTITLE9=Think It Over [False Start and Rehearsal Take] [Take 1]
TTITLE10=Think It Over [Take 2][Alternate Take]
TTITLE11=Think It Over [Take 3][Version]
TTITLE12=Love's Made a Fool of You
TTITLE13=That'll Be the Day [Greetings to Bob Thiele]
TTITLE14=That'll Be the Day [Greetings to Murray Deutsch]
TTITLE15=That's What They Say [W-Fragment]
TTITLE16=What to Do
TTITLE17=Peggy Sue Got Married
TTITLE18=That Makes It Tough
TTITLE19=Crying. Waiting. Hoping
TTITLE20=Learning the Game
TTITLE21=Wait Till the Sun Shines Nellie
TTITLE22=Slippin' and Slidin' [Slow Version 1]
TTITLE23=Slippin' and Slidin' [Slow Version 2]
TTITLE24=Slippin' and Slidin' [Fast Version]
TTITLE25=Buddy and Maria Elena Talking in Apartment
TTITLE26=Dearest [Fragment]
TTITLE27=Dearest
TTITLE28=Untiled Instrumental
TTITLE29=Love Is Strange
TTITLE30=Smokey Joe's Cafe
EXTD=
EXTT0=
EXTT1=
EXTT2=
EXTT3=
EXTT4=
EXTT5=
EXTT6=
EXTT7=
EXTT8=
EXTT9=
EXTT10=
EXTT11=
EXTT12=
EXTT13=
EXTT14=
EXTT15=
EXTT16=
EXTT17=
EXTT18=
EXTT19=
EXTT20=
EXTT21=
EXTT22=
EXTT23=
EXTT24=
EXTT25=
EXTT26=
EXTT27=
EXTT28=
EXTT29=
EXTT30=
PLAYORDER=
